<?xml version="1.0" encoding="UTF-8" standalone="no"?>
<svg xmlns="http://www.w3.org/2000/svg" version="1.1" width="232" height="232" viewBox="0 0 232 232"><rect x="0" y="0" width="232" height="232" fill="#FFFFFF" /><rect x="0" y="0" width="8" height="8" fill="#000000" /><rect x="8" y="0" width="8" height="8" fill="#000000" /><rect x="16" y="0" width="8" height="8" fill="#000000" /><rect x="24" y="0" width="8" height="8" fill="#000000" /><rect x="32" y="0" width="8" height="8" fill="#000000" /><rect x="40" y="0" width="8" height="8" fill="#000000" /><rect x="48" y="0" width="8" height="8" fill="#000000" /><rect x="72" y="0" width="8" height="8" fill="#000000" /><rect x="96" y="0" width="8" height="8" fill="#000000" /><rect x="104" y="0" width="8" height="8" fill="#000000" /><rect x="112" y="0" width="8" height="8" fill="#000000" /><rect x="120" y="0" width="8" height="8" fill="#000000" /><rect x="128" y="0" width="8" height="8" fill="#000000" /><rect x="144" y="0" width="8" height="8" fill="#000000" /><rect x="152" y="0" width="8" height="8" fill="#000000" /><rect x="176" y="0" width="8" height="8" fill="#000000" /><rect x="184" y="0" width="8" height="8" fill="#000000" /><rect x="192" y="0" width="8" height="8" fill="#000000" /><rect x="200" y="0" width="8" height="8" fill="#000000" /><rect x="208" y="0" width="8" height="8" fill="#000000" /><rect x="216" y="0" width="8" height="8" fill="#000000" /><rect x="224" y="0" width="8" height="8" fill="#000000" /><rect x="0" y="8" width="8" height="8" fill="#000000" /><rect x="48" y="8" width="8" height="8" fill="#000000" /><rect x="64" y="8" width="8" height="8" fill="#000000" /><rect x="88" y="8" width="8" height="8" fill="#000000" /><rect x="96" y="8" width="8" height="8" fill="#000000" /><rect x="104" y="8" width="8" height="8" fill="#000000" /><rect x="112" y="8" width="8" height="8" fill="#000000" /><rect x="120" y="8" width="8" height="8" fill="#000000" /><rect x="136" y="8" width="8" height="8" fill="#000000" /><rect x="176" y="8" width="8" height="8" fill="#000000" /><rect x="224" y="8" width="8" height="8" fill="#000000" /><rect x="0" y="16" width="8" height="8" fill="#000000" /><rect x="16" y="16" width="8" height="8" fill="#000000" /><rect x="24" y="16" width="8" height="8" fill="#000000" /><rect x="32" y="16" width="8" height="8" fill="#000000" /><rect x="48" y="16" width="8" height="8" fill="#000000" /><rect x="64" y="16" width="8" height="8" fill="#000000" /><rect x="72" y="16" width="8" height="8" fill="#000000" /><rect x="80" y="16" width="8" height="8" fill="#000000" /><rect x="88" y="16" width="8" height="8" fill="#000000" /><rect x="96" y="16" width="8" height="8" fill="#000000" /><rect x="112" y="16" width="8" height="8" fill="#000000" /><rect x="136" y="16" width="8" height="8" fill="#000000" /><rect x="152" y="16" width="8" height="8" fill="#000000" /><rect x="176" y="16" width="8" height="8" fill="#000000" /><rect x="192" y="16" width="8" height="8" fill="#000000" /><rect x="200" y="16" width="8" height="8" fill="#000000" /><rect x="208" y="16" width="8" height="8" fill="#000000" /><rect x="224" y="16" width="8" height="8" fill="#000000" /><rect x="0" y="24" width="8" height="8" fill="#000000" /><rect x="16" y="24" width="8" height="8" fill="#000000" /><rect x="24" y="24" width="8" height="8" fill="#000000" /><rect x="32" y="24" width="8" height="8" fill="#000000" /><rect x="48" y="24" width="8" height="8" fill="#000000" /><rect x="72" y="24" width="8" height="8" fill="#000000" /><rect x="80" y="24" width="8" height="8" fill="#000000" /><rect x="88" y="24" width="8" height="8" fill="#000000" /><rect x="104" y="24" width="8" height="8" fill="#000000" /><rect x="112" y="24" width="8" height="8" fill="#000000" /><rect x="120" y="24" width="8" height="8" fill="#000000" /><rect x="144" y="24" width="8" height="8" fill="#000000" /><rect x="152" y="24" width="8" height="8" fill="#000000" /><rect x="160" y="24" width="8" height="8" fill="#000000" /><rect x="176" y="24" width="8" height="8" fill="#000000" /><rect x="192" y="24" width="8" height="8" fill="#000000" /><rect x="200" y="24" width="8" height="8" fill="#000000" /><rect x="208" y="24" width="8" height="8" fill="#000000" /><rect x="224" y="24" width="8" height="8" fill="#000000" /><rect x="0" y="32" width="8" height="8" fill="#000000" /><rect x="16" y="32" width="8" height="8" fill="#000000" /><rect x="24" y="32" width="8" height="8" fill="#000000" /><rect x="32" y="32" width="8" height="8" fill="#000000" /><rect x="48" y="32" width="8" height="8" fill="#000000" /><rect x="64" y="32" width="8" height="8" fill="#000000" /><rect x="112" y="32" width="8" height="8" fill="#000000" /><rect x="120" y="32" width="8" height="8" fill="#000000" /><rect x="128" y="32" width="8" height="8" fill="#000000" /><rect x="136" y="32" width="8" height="8" fill="#000000" /><rect x="144" y="32" width="8" height="8" fill="#000000" /><rect x="176" y="32" width="8" height="8" fill="#000000" /><rect x="192" y="32" width="8" height="8" fill="#000000" /><rect x="200" y="32" width="8" height="8" fill="#000000" /><rect x="208" y="32" width="8" height="8" fill="#000000" /><rect x="224" y="32" width="8" height="8" fill="#000000" /><rect x="0" y="40" width="8" height="8" fill="#000000" /><rect x="48" y="40" width="8" height="8" fill="#000000" /><rect x="64" y="40" width="8" height="8" fill="#000000" /><rect x="72" y="40" width="8" height="8" fill="#000000" /><rect x="88" y="40" width="8" height="8" fill="#000000" /><rect x="104" y="40" width="8" height="8" fill="#000000" /><rect x="112" y="40" width="8" height="8" fill="#000000" /><rect x="120" y="40" width="8" height="8" fill="#000000" /><rect x="128" y="40" width="8" height="8" fill="#000000" /><rect x="152" y="40" width="8" height="8" fill="#000000" /><rect x="160" y="40" width="8" height="8" fill="#000000" /><rect x="176" y="40" width="8" height="8" fill="#000000" /><rect x="224" y="40" width="8" height="8" fill="#000000" /><rect x="0" y="48" width="8" height="8" fill="#000000" /><rect x="8" y="48" width="8" height="8" fill="#000000" /><rect x="16" y="48" width="8" height="8" fill="#000000" /><rect x="24" y="48" width="8" height="8" fill="#000000" /><rect x="32" y="48" width="8" height="8" fill="#000000" /><rect x="40" y="48" width="8" height="8" fill="#000000" /><rect x="48" y="48" width="8" height="8" fill="#000000" /><rect x="64" y="48" width="8" height="8" fill="#000000" /><rect x="80" y="48" width="8" height="8" fill="#000000" /><rect x="96" y="48" width="8" height="8" fill="#000000" /><rect x="112" y="48" width="8" height="8" fill="#000000" /><rect x="128" y="48" width="8" height="8" fill="#000000" /><rect x="144" y="48" width="8" height="8" fill="#000000" /><rect x="160" y="48" width="8" height="8" fill="#000000" /><rect x="176" y="48" width="8" height="8" fill="#000000" /><rect x="184" y="48" width="8" height="8" fill="#000000" /><rect x="192" y="48" width="8" height="8" fill="#000000" /><rect x="200" y="48" width="8" height="8" fill="#000000" /><rect x="208" y="48" width="8" height="8" fill="#000000" /><rect x="216" y="48" width="8" height="8" fill="#000000" /><rect x="224" y="48" width="8" height="8" fill="#000000" /><rect x="64" y="56" width="8" height="8" fill="#000000" /><rect x="72" y="56" width="8" height="8" fill="#000000" /><rect x="96" y="56" width="8" height="8" fill="#000000" /><rect x="112" y="56" width="8" height="8" fill="#000000" /><rect x="120" y="56" width="8" height="8" fill="#000000" /><rect x="136" y="56" width="8" height="8" fill="#000000" /><rect x="144" y="56" width="8" height="8" fill="#000000" /><rect x="152" y="56" width="8" height="8" fill="#000000" /><rect x="0" y="64" width="8" height="8" fill="#000000" /><rect x="8" y="64" width="8" height="8" fill="#000000" /><rect x="24" y="64" width="8" height="8" fill="#000000" /><rect x="48" y="64" width="8" height="8" fill="#000000" /><rect x="56" y="64" width="8" height="8" fill="#000000" /><rect x="80" y="64" width="8" height="8" fill="#000000" /><rect x="96" y="64" width="8" height="8" fill="#000000" /><rect x="112" y="64" width="8" height="8" fill="#000000" /><rect x="176" y="64" width="8" height="8" fill="#000000" /><rect x="184" y="64" width="8" height="8" fill="#000000" /><rect x="192" y="64" width="8" height="8" fill="#000000" /><rect x="208" y="64" width="8" height="8" fill="#000000" /><rect x="216" y="64" width="8" height="8" fill="#000000" /><rect x="0" y="72" width="8" height="8" fill="#000000" /><rect x="24" y="72" width="8" height="8" fill="#000000" /><rect x="56" y="72" width="8" height="8" fill="#000000" /><rect x="80" y="72" width="8" height="8" fill="#000000" /><rect x="88" y="72" width="8" height="8" fill="#000000" /><rect x="104" y="72" width="8" height="8" fill="#000000" /><rect x="128" y="72" width="8" height="8" fill="#000000" /><rect x="160" y="72" width="8" height="8" fill="#000000" /><rect x="176" y="72" width="8" height="8" fill="#000000" /><rect x="200" y="72" width="8" height="8" fill="#000000" /><rect x="224" y="72" width="8" height="8" fill="#000000" /><rect x="0" y="80" width="8" height="8" fill="#000000" /><rect x="8" y="80" width="8" height="8" fill="#000000" /><rect x="24" y="80" width="8" height="8" fill="#000000" /><rect x="48" y="80" width="8" height="8" fill="#000000" /><rect x="64" y="80" width="8" height="8" fill="#000000" /><rect x="72" y="80" width="8" height="8" fill="#000000" /><rect x="80" y="80" width="8" height="8" fill="#000000" /><rect x="104" y="80" width="8" height="8" fill="#000000" /><rect x="128" y="80" width="8" height="8" fill="#000000" /><rect x="136" y="80" width="8" height="8" fill="#000000" /><rect x="152" y="80" width="8" height="8" fill="#000000" /><rect x="160" y="80" width="8" height="8" fill="#000000" /><rect x="192" y="80" width="8" height="8" fill="#000000" /><rect x="200" y="80" width="8" height="8" fill="#000000" /><rect x="208" y="80" width="8" height="8" fill="#000000" /><rect x="216" y="80" width="8" height="8" fill="#000000" /><rect x="0" y="88" width="8" height="8" fill="#000000" /><rect x="8" y="88" width="8" height="8" fill="#000000" /><rect x="16" y="88" width="8" height="8" fill="#000000" /><rect x="32" y="88" width="8" height="8" fill="#000000" /><rect x="40" y="88" width="8" height="8" fill="#000000" /><rect x="56" y="88" width="8" height="8" fill="#000000" /><rect x="64" y="88" width="8" height="8" fill="#000000" /><rect x="104" y="88" width="8" height="8" fill="#000000" /><rect x="112" y="88" width="8" height="8" fill="#000000" /><rect x="152" y="88" width="8" height="8" fill="#000000" /><rect x="168" y="88" width="8" height="8" fill="#000000" /><rect x="176" y="88" width="8" height="8" fill="#000000" /><rect x="184" y="88" width="8" height="8" fill="#000000" /><rect x="208" y="88" width="8" height="8" fill="#000000" /><rect x="216" y="88" width="8" height="8" fill="#000000" /><rect x="24" y="96" width="8" height="8" fill="#000000" /><rect x="40" y="96" width="8" height="8" fill="#000000" /><rect x="48" y="96" width="8" height="8" fill="#000000" /><rect x="64" y="96" width="8" height="8" fill="#000000" /><rect x="88" y="96" width="8" height="8" fill="#000000" /><rect x="136" y="96" width="8" height="8" fill="#000000" /><rect x="168" y="96" width="8" height="8" fill="#000000" /><rect x="176" y="96" width="8" height="8" fill="#000000" /><rect x="184" y="96" width="8" height="8" fill="#000000" /><rect x="200" y="96" width="8" height="8" fill="#000000" /><rect x="216" y="96" width="8" height="8" fill="#000000" /><rect x="224" y="96" width="8" height="8" fill="#000000" /><rect x="8" y="104" width="8" height="8" fill="#000000" /><rect x="24" y="104" width="8" height="8" fill="#000000" /><rect x="32" y="104" width="8" height="8" fill="#000000" /><rect x="40" y="104" width="8" height="8" fill="#000000" /><rect x="80" y="104" width="8" height="8" fill="#000000" /><rect x="136" y="104" width="8" height="8" fill="#000000" /><rect x="144" y="104" width="8" height="8" fill="#000000" /><rect x="152" y="104" width="8" height="8" fill="#000000" /><rect x="160" y="104" width="8" height="8" fill="#000000" /><rect x="168" y="104" width="8" height="8" fill="#000000" /><rect x="0" y="112" width="8" height="8" fill="#000000" /><rect x="8" y="112" width="8" height="8" fill="#000000" /><rect x="16" y="112" width="8" height="8" fill="#000000" /><rect x="32" y="112" width="8" height="8" fill="#000000" /><rect x="48" y="112" width="8" height="8" fill="#000000" /><rect x="56" y="112" width="8" height="8" fill="#000000" /><rect x="88" y="112" width="8" height="8" fill="#000000" /><rect x="112" y="112" width="8" height="8" fill="#000000" /><rect x="144" y="112" width="8" height="8" fill="#000000" /><rect x="160" y="112" width="8" height="8" fill="#000000" /><rect x="176" y="112" width="8" height="8" fill="#000000" /><rect x="192" y="112" width="8" height="8" fill="#000000" /><rect x="200" y="112" width="8" height="8" fill="#000000" /><rect x="208" y="112" width="8" height="8" fill="#000000" /><rect x="216" y="112" width="8" height="8" fill="#000000" /><rect x="224" y="112" width="8" height="8" fill="#000000" /><rect x="8" y="120" width="8" height="8" fill="#000000" /><rect x="40" y="120" width="8" height="8" fill="#000000" /><rect x="56" y="120" width="8" height="8" fill="#000000" /><rect x="72" y="120" width="8" height="8" fill="#000000" /><rect x="96" y="120" width="8" height="8" fill="#000000" /><rect x="104" y="120" width="8" height="8" fill="#000000" /><rect x="112" y="120" width="8" height="8" fill="#000000" /><rect x="136" y="120" width="8" height="8" fill="#000000" /><rect x="144" y="120" width="8" height="8" fill="#000000" /><rect x="152" y="120" width="8" height="8" fill="#000000" /><rect x="160" y="120" width="8" height="8" fill="#000000" /><rect x="200" y="120" width="8" height="8" fill="#000000" /><rect x="216" y="120" width="8" height="8" fill="#000000" /><rect x="8" y="128" width="8" height="8" fill="#000000" /><rect x="16" y="128" width="8" height="8" fill="#000000" /><rect x="24" y="128" width="8" height="8" fill="#000000" /><rect x="32" y="128" width="8" height="8" fill="#000000" /><rect x="48" y="128" width="8" height="8" fill="#000000" /><rect x="56" y="128" width="8" height="8" fill="#000000" /><rect x="80" y="128" width="8" height="8" fill="#000000" /><rect x="104" y="128" width="8" height="8" fill="#000000" /><rect x="128" y="128" width="8" height="8" fill="#000000" /><rect x="136" y="128" width="8" height="8" fill="#000000" /><rect x="144" y="128" width="8" height="8" fill="#000000" /><rect x="152" y="128" width="8" height="8" fill="#000000" /><rect x="160" y="128" width="8" height="8" fill="#000000" /><rect x="168" y="128" width="8" height="8" fill="#000000" /><rect x="184" y="128" width="8" height="8" fill="#000000" /><rect x="216" y="128" width="8" height="8" fill="#000000" /><rect x="16" y="136" width="8" height="8" fill="#000000" /><rect x="56" y="136" width="8" height="8" fill="#000000" /><rect x="64" y="136" width="8" height="8" fill="#000000" /><rect x="72" y="136" width="8" height="8" fill="#000000" /><rect x="80" y="136" width="8" height="8" fill="#000000" /><rect x="88" y="136" width="8" height="8" fill="#000000" /><rect x="104" y="136" width="8" height="8" fill="#000000" /><rect x="112" y="136" width="8" height="8" fill="#000000" /><rect x="128" y="136" width="8" height="8" fill="#000000" /><rect x="136" y="136" width="8" height="8" fill="#000000" /><rect x="168" y="136" width="8" height="8" fill="#000000" /><rect x="176" y="136" width="8" height="8" fill="#000000" /><rect x="184" y="136" width="8" height="8" fill="#000000" /><rect x="200" y="136" width="8" height="8" fill="#000000" /><rect x="224" y="136" width="8" height="8" fill="#000000" /><rect x="0" y="144" width="8" height="8" fill="#000000" /><rect x="16" y="144" width="8" height="8" fill="#000000" /><rect x="48" y="144" width="8" height="8" fill="#000000" /><rect x="56" y="144" width="8" height="8" fill="#000000" /><rect x="64" y="144" width="8" height="8" fill="#000000" /><rect x="112" y="144" width="8" height="8" fill="#000000" /><rect x="136" y="144" width="8" height="8" fill="#000000" /><rect x="160" y="144" width="8" height="8" fill="#000000" /><rect x="176" y="144" width="8" height="8" fill="#000000" /><rect x="184" y="144" width="8" height="8" fill="#000000" /><rect x="216" y="144" width="8" height="8" fill="#000000" /><rect x="224" y="144" width="8" height="8" fill="#000000" /><rect x="16" y="152" width="8" height="8" fill="#000000" /><rect x="24" y="152" width="8" height="8" fill="#000000" /><rect x="32" y="152" width="8" height="8" fill="#000000" /><rect x="56" y="152" width="8" height="8" fill="#000000" /><rect x="96" y="152" width="8" height="8" fill="#000000" /><rect x="112" y="152" width="8" height="8" fill="#000000" /><rect x="120" y="152" width="8" height="8" fill="#000000" /><rect x="128" y="152" width="8" height="8" fill="#000000" /><rect x="136" y="152" width="8" height="8" fill="#000000" /><rect x="152" y="152" width="8" height="8" fill="#000000" /><rect x="192" y="152" width="8" height="8" fill="#000000" /><rect x="216" y="152" width="8" height="8" fill="#000000" /><rect x="224" y="152" width="8" height="8" fill="#000000" /><rect x="0" y="160" width="8" height="8" fill="#000000" /><rect x="48" y="160" width="8" height="8" fill="#000000" /><rect x="56" y="160" width="8" height="8" fill="#000000" /><rect x="64" y="160" width="8" height="8" fill="#000000" /><rect x="72" y="160" width="8" height="8" fill="#000000" /><rect x="80" y="160" width="8" height="8" fill="#000000" /><rect x="88" y="160" width="8" height="8" fill="#000000" /><rect x="104" y="160" width="8" height="8" fill="#000000" /><rect x="120" y="160" width="8" height="8" fill="#000000" /><rect x="128" y="160" width="8" height="8" fill="#000000" /><rect x="152" y="160" width="8" height="8" fill="#000000" /><rect x="160" y="160" width="8" height="8" fill="#000000" /><rect x="168" y="160" width="8" height="8" fill="#000000" /><rect x="176" y="160" width="8" height="8" fill="#000000" /><rect x="184" y="160" width="8" height="8" fill="#000000" /><rect x="192" y="160" width="8" height="8" fill="#000000" /><rect x="208" y="160" width="8" height="8" fill="#000000" /><rect x="64" y="168" width="8" height="8" fill="#000000" /><rect x="80" y="168" width="8" height="8" fill="#000000" /><rect x="128" y="168" width="8" height="8" fill="#000000" /><rect x="136" y="168" width="8" height="8" fill="#000000" /><rect x="152" y="168" width="8" height="8" fill="#000000" /><rect x="160" y="168" width="8" height="8" fill="#000000" /><rect x="192" y="168" width="8" height="8" fill="#000000" /><rect x="208" y="168" width="8" height="8" fill="#000000" /><rect x="216" y="168" width="8" height="8" fill="#000000" /><rect x="224" y="168" width="8" height="8" fill="#000000" /><rect x="0" y="176" width="8" height="8" fill="#000000" /><rect x="8" y="176" width="8" height="8" fill="#000000" /><rect x="16" y="176" width="8" height="8" fill="#000000" /><rect x="24" y="176" width="8" height="8" fill="#000000" /><rect x="32" y="176" width="8" height="8" fill="#000000" /><rect x="40" y="176" width="8" height="8" fill="#000000" /><rect x="48" y="176" width="8" height="8" fill="#000000" /><rect x="64" y="176" width="8" height="8" fill="#000000" /><rect x="96" y="176" width="8" height="8" fill="#000000" /><rect x="104" y="176" width="8" height="8" fill="#000000" /><rect x="128" y="176" width="8" height="8" fill="#000000" /><rect x="136" y="176" width="8" height="8" fill="#000000" /><rect x="144" y="176" width="8" height="8" fill="#000000" /><rect x="160" y="176" width="8" height="8" fill="#000000" /><rect x="176" y="176" width="8" height="8" fill="#000000" /><rect x="192" y="176" width="8" height="8" fill="#000000" /><rect x="216" y="176" width="8" height="8" fill="#000000" /><rect x="0" y="184" width="8" height="8" fill="#000000" /><rect x="48" y="184" width="8" height="8" fill="#000000" /><rect x="72" y="184" width="8" height="8" fill="#000000" /><rect x="80" y="184" width="8" height="8" fill="#000000" /><rect x="96" y="184" width="8" height="8" fill="#000000" /><rect x="104" y="184" width="8" height="8" fill="#000000" /><rect x="128" y="184" width="8" height="8" fill="#000000" /><rect x="144" y="184" width="8" height="8" fill="#000000" /><rect x="160" y="184" width="8" height="8" fill="#000000" /><rect x="192" y="184" width="8" height="8" fill="#000000" /><rect x="200" y="184" width="8" height="8" fill="#000000" /><rect x="208" y="184" width="8" height="8" fill="#000000" /><rect x="216" y="184" width="8" height="8" fill="#000000" /><rect x="0" y="192" width="8" height="8" fill="#000000" /><rect x="16" y="192" width="8" height="8" fill="#000000" /><rect x="24" y="192" width="8" height="8" fill="#000000" /><rect x="32" y="192" width="8" height="8" fill="#000000" /><rect x="48" y="192" width="8" height="8" fill="#000000" /><rect x="104" y="192" width="8" height="8" fill="#000000" /><rect x="112" y="192" width="8" height="8" fill="#000000" /><rect x="120" y="192" width="8" height="8" fill="#000000" /><rect x="128" y="192" width="8" height="8" fill="#000000" /><rect x="136" y="192" width="8" height="8" fill="#000000" /><rect x="160" y="192" width="8" height="8" fill="#000000" /><rect x="168" y="192" width="8" height="8" fill="#000000" /><rect x="176" y="192" width="8" height="8" fill="#000000" /><rect x="184" y="192" width="8" height="8" fill="#000000" /><rect x="192" y="192" width="8" height="8" fill="#000000" /><rect x="224" y="192" width="8" height="8" fill="#000000" /><rect x="0" y="200" width="8" height="8" fill="#000000" /><rect x="16" y="200" width="8" height="8" fill="#000000" /><rect x="24" y="200" width="8" height="8" fill="#000000" /><rect x="32" y="200" width="8" height="8" fill="#000000" /><rect x="48" y="200" width="8" height="8" fill="#000000" /><rect x="64" y="200" width="8" height="8" fill="#000000" /><rect x="72" y="200" width="8" height="8" fill="#000000" /><rect x="80" y="200" width="8" height="8" fill="#000000" /><rect x="112" y="200" width="8" height="8" fill="#000000" /><rect x="128" y="200" width="8" height="8" fill="#000000" /><rect x="160" y="200" width="8" height="8" fill="#000000" /><rect x="176" y="200" width="8" height="8" fill="#000000" /><rect x="184" y="200" width="8" height="8" fill="#000000" /><rect x="192" y="200" width="8" height="8" fill="#000000" /><rect x="200" y="200" width="8" height="8" fill="#000000" /><rect x="208" y="200" width="8" height="8" fill="#000000" /><rect x="0" y="208" width="8" height="8" fill="#000000" /><rect x="16" y="208" width="8" height="8" fill="#000000" /><rect x="24" y="208" width="8" height="8" fill="#000000" /><rect x="32" y="208" width="8" height="8" fill="#000000" /><rect x="48" y="208" width="8" height="8" fill="#000000" /><rect x="80" y="208" width="8" height="8" fill="#000000" /><rect x="88" y="208" width="8" height="8" fill="#000000" /><rect x="104" y="208" width="8" height="8" fill="#000000" /><rect x="152" y="208" width="8" height="8" fill="#000000" /><rect x="160" y="208" width="8" height="8" fill="#000000" /><rect x="192" y="208" width="8" height="8" fill="#000000" /><rect x="200" y="208" width="8" height="8" fill="#000000" /><rect x="208" y="208" width="8" height="8" fill="#000000" /><rect x="224" y="208" width="8" height="8" fill="#000000" /><rect x="0" y="216" width="8" height="8" fill="#000000" /><rect x="48" y="216" width="8" height="8" fill="#000000" /><rect x="64" y="216" width="8" height="8" fill="#000000" /><rect x="88" y="216" width="8" height="8" fill="#000000" /><rect x="104" y="216" width="8" height="8" fill="#000000" /><rect x="120" y="216" width="8" height="8" fill="#000000" /><rect x="128" y="216" width="8" height="8" fill="#000000" /><rect x="136" y="216" width="8" height="8" fill="#000000" /><rect x="144" y="216" width="8" height="8" fill="#000000" /><rect x="152" y="216" width="8" height="8" fill="#000000" /><rect x="160" y="216" width="8" height="8" fill="#000000" /><rect x="168" y="216" width="8" height="8" fill="#000000" /><rect x="176" y="216" width="8" height="8" fill="#000000" /><rect x="216" y="216" width="8" height="8" fill="#000000" /><rect x="0" y="224" width="8" height="8" fill="#000000" /><rect x="8" y="224" width="8" height="8" fill="#000000" /><rect x="16" y="224" width="8" height="8" fill="#000000" /><rect x="24" y="224" width="8" height="8" fill="#000000" /><rect x="32" y="224" width="8" height="8" fill="#000000" /><rect x="40" y="224" width="8" height="8" fill="#000000" /><rect x="48" y="224" width="8" height="8" fill="#000000" /><rect x="64" y="224" width="8" height="8" fill="#000000" /><rect x="72" y="224" width="8" height="8" fill="#000000" /><rect x="112" y="224" width="8" height="8" fill="#000000" /><rect x="120" y="224" width="8" height="8" fill="#000000" /><rect x="136" y="224" width="8" height="8" fill="#000000" /><rect x="152" y="224" width="8" height="8" fill="#000000" /><rect x="160" y="224" width="8" height="8" fill="#000000" /><rect x="168" y="224" width="8" height="8" fill="#000000" /><rect x="176" y="224" width="8" height="8" fill="#000000" /><rect x="216" y="224" width="8" height="8" fill="#000000" /></svg>
